<?xml version="1.0" encoding="UTF-8"?><svg id="Layer_2" xmlns="http://www.w3.org/2000/svg" viewBox="0 0 236.49 177.2"><defs><style>.cls-1{fill:#b4a469;}.cls-2{fill:#151717;}</style></defs><g id="Logoer"><g><path class="cls-1" d="M236.49,110.19c-6.49,23.5-39.69,70.56-95.81,66.8-55.03-3.68-70.72-51.72-65.47-87.75,.04-.27,.08-.52,.12-.79-2.79,1.81-3.57,2.48-6.6,4.33-1.12,12.73-5.29,28.34-16.39,41.14h0c-20.55,25.57-42.4,32.42-49.71,26.3-6.53-5.47-.5-21.63,13.48-37.82,.11-.12,.22-.25,.33-.38,.14-.16,.28-.32,.44-.49,.11-.12,.22-.25,.32-.37,1.34-1.51,2.69-2.9,4.17-4.39h0c4.08-4.07,8.7-7.99,13.84-11.5,4.91-3.36,9.97-6.66,15.02-9.85-.5-7.9-2.43-22.06-6.95-32.15-5.11,1.18-9.49,3.67-12.59,7.03-3.74,4.08-6.32,13,3.35,12.42-2.34,7.46-19.3,11.66-23.96,3.92-4.41-7.34,3.68-17.11,13.59-22.06,12.08-6.04,30.42-9.05,36.91-21.24,3.69,7.23,8.16,25.25,8.66,40.62,3.65-2.28,4.77-3.4,8.11-5.6,4.83-19.86,14.95-41.21,27.5-56.49h0C117.42,6.47,129.96-2.57,135.54,.65c6.79,3.91,.48,24.14-14.28,45.85h0c-8.6,13.23-19.74,23.79-34.98,34.59-.74,3.65-1.31,7.34-1.69,10.99-2.07,20.44,7.74,65.41,62.79,68.06,42.5,2.04,76.9-32.96,89.11-49.94ZM88.65,71.35c5.07-3.8,9.68-8.51,12.76-12.01,11.85-13.44,18.73-32.07,12.14-32.51-5.61-.38-17.99,20.6-24.9,44.51Zm-38.15,32.14c-13.54,9.47-21.2,17.91-26.48,25.82-6.19,9.31-7.28,18.29,1.16,14.54,5.82-2.6,22.98-16.22,25.33-40.36Z"/><g><g><path class="cls-2" d="M105,76.45h3.98v9.89h8.27v-9.89h3.98v19.32h-3.98v-5.88h-8.27v5.88h-3.98v-19.32Z"/><path class="cls-2" d="M132.32,76.28h.34l8.83,19.49h-4.18l-.91-2.19h-7.84l-.91,2.19h-3.84l8.49-19.49Zm2.67,13.98l-1.39-3.35c-.57-1.36-1.17-3.47-1.17-3.47,0,0-.57,2.1-1.14,3.47l-1.39,3.35h5.08Z"/><path class="cls-2" d="M149.85,86.79c-.97-.91-2.3-2.64-2.3-2.64,0,0,.28,2.13,.28,3.52v8.1h-3.72v-19.49h.4l9.74,9.15c.94,.88,2.27,2.64,2.27,2.64,0,0-.26-2.19-.26-3.52v-8.1h3.72v19.49h-.4l-9.74-9.15Z"/><path class="cls-2" d="M162.35,91.96l3.24-1.87c.85,1.39,1.96,2.41,3.92,2.41,1.65,0,2.7-.82,2.7-1.96,0-1.36-1.08-1.85-2.9-2.64l-.99-.43c-2.87-1.22-4.77-2.76-4.77-5.99,0-2.98,2.27-5.26,5.82-5.26,2.53,0,4.35,.88,5.65,3.18l-3.1,1.99c-.68-1.22-1.42-1.7-2.56-1.7s-1.9,.74-1.9,1.7c0,1.19,.74,1.68,2.44,2.41l.99,.43c3.38,1.45,5.28,2.93,5.28,6.25,0,3.58-2.81,5.54-6.59,5.54s-6.08-1.76-7.24-4.06Z"/><path class="cls-2" d="M185.79,76.28h.34l8.83,19.49h-4.18l-.91-2.19h-7.84l-.91,2.19h-3.84l8.49-19.49Zm2.67,13.98l-1.39-3.35c-.57-1.36-1.16-3.47-1.16-3.47,0,0-.57,2.1-1.14,3.47l-1.39,3.35h5.08Z"/><path class="cls-2" d="M105,98.79h7.47c3.61,0,5.62,2.27,5.62,5,0,1.79-1.05,3.01-2.73,3.55,2.64,.62,3.92,2.39,3.92,4.8,0,3.44-2.44,5.97-6.48,5.97h-7.81v-19.32Zm7.05,7.13c1.28,0,2.13-.71,2.13-1.82s-.71-1.82-1.93-1.82h-3.27v3.64h3.07Zm.6,8.69c1.62,0,2.64-1.08,2.64-2.67s-1.05-2.64-2.87-2.64h-3.44v5.31h3.66Z"/><path class="cls-2" d="M121.67,108.45c0-5.71,4.43-9.92,10-9.92s10,4.2,10,9.92-4.43,9.91-10,9.91-10-4.21-10-9.91Zm15.91,0c0-3.61-2.39-6.36-5.91-6.36s-5.91,2.76-5.91,6.36,2.39,6.36,5.91,6.36,5.91-2.75,5.91-6.36Z"/><path class="cls-2" d="M159.31,118.11h-4.6l-3.18-4.89c-.37,.06-.77,.09-1.14,.09h-1.36v4.8h-3.98v-19.32h5.34c5.4,0,8.64,2.59,8.64,7.3,0,3.01-1.34,4.91-3.72,5.99l4.01,6.02Zm-9.03-8.27c3.24,0,4.66-1.02,4.66-3.75s-1.48-3.81-4.66-3.81h-1.25v7.56h1.25Z"/><path class="cls-2" d="M161.84,108.45c0-5.71,4.43-9.89,10-9.89,3.38,0,6.02,1.19,7.84,4l-3.13,2.22c-1.02-1.65-2.53-2.64-4.71-2.64-3.52,0-5.91,2.7-5.91,6.31s2.39,6.39,5.94,6.39c2.95,0,4.89-1.65,5.34-3.61h-4.83v-3.47h9.03c.31,6.39-3.04,10.6-9.52,10.6-5.82,0-10.06-4.21-10.06-9.91Z"/></g><g><path class="cls-2" d="M105,121.18h4.05c2.33,0,3.48,1.35,3.48,3.04,0,1.18-.58,2.02-1.59,2.48,1.57,.42,2.57,1.6,2.57,3.26,0,2.01-1.31,3.61-3.99,3.61h-4.52v-12.39Zm4.17,5.12c1.57,0,2.17-.86,2.17-2.06,0-1.13-.68-2.01-2.37-2.01h-2.79v4.06h2.99Zm.24,6.21c2.06,0,2.9-1.11,2.9-2.59s-.93-2.62-2.93-2.62h-3.19v5.21h3.23Z"/><path class="cls-2" d="M123.4,133.57h-1.44l-2.46-3.17c-.33,.05-.66,.07-1.02,.07h-1.51v3.1h-1.18v-12.39h2.7c3.37,0,5.12,1.99,5.12,4.67,0,1.99-.98,3.61-2.9,4.28l2.7,3.45Zm-4.99-4.14c2.82,0,3.95-1.51,3.95-3.59s-1.15-3.61-3.95-3.61h-1.44v7.2h1.44Z"/><path class="cls-2" d="M124.71,121.18h1.31l3.99,7.31,3.97-7.31h1.24l-4.63,8.51v3.88h-1.2v-3.88l-4.68-8.51Z"/><path class="cls-2" d="M135.37,127.38c0-3.66,2.83-6.34,6.34-6.34,2.19,0,3.94,.8,5.1,2.46l-.91,.68c-.95-1.35-2.3-2.06-4.21-2.06-2.93,0-5.08,2.26-5.08,5.27s2.17,5.27,5.14,5.27,4.21-1.6,4.63-3.15h-4.41v-1.06h5.78c-.24,3.14-2.43,5.29-6,5.29s-6.38-2.68-6.38-6.34Z"/><path class="cls-2" d="M149.27,127.38c0-3.66,2.83-6.34,6.34-6.34,2.19,0,3.94,.8,5.1,2.46l-.91,.68c-.95-1.35-2.3-2.06-4.21-2.06-2.93,0-5.08,2.26-5.08,5.27s2.17,5.27,5.14,5.27,4.21-1.6,4.63-3.15h-4.41v-1.06h5.78c-.24,3.14-2.42,5.29-6,5.29s-6.38-2.68-6.38-6.34Z"/><path class="cls-2" d="M164,121.18h7.47v1.06h-6.29v6.2h5.61v1.04h-5.61v3.04h6.54v1.06h-7.73v-12.39Z"/><path class="cls-2" d="M181.86,133.57h-1.44l-2.46-3.17c-.33,.05-.66,.07-1.02,.07h-1.51v3.1h-1.19v-12.39h2.7c3.37,0,5.12,1.99,5.12,4.67,0,1.99-.98,3.61-2.9,4.28l2.7,3.45Zm-4.99-4.14c2.83,0,3.96-1.51,3.96-3.59s-1.15-3.61-3.96-3.61h-1.44v7.2h1.44Z"/><path class="cls-2" d="M184.7,121.18h1.2v12.39h-1.2v-12.39Z"/><path class="cls-2" d="M189.14,121.18h7.47v1.06h-6.29v6.2h5.61v1.04h-5.61v3.04h6.54v1.06h-7.73v-12.39Z"/><path class="cls-2" d="M207,133.57h-1.44l-2.46-3.17c-.33,.05-.66,.07-1.02,.07h-1.51v3.1h-1.18v-12.39h2.7c3.37,0,5.12,1.99,5.12,4.67,0,1.99-.99,3.61-2.9,4.28l2.7,3.45Zm-5-4.14c2.83,0,3.96-1.51,3.96-3.59s-1.15-3.61-3.96-3.61h-1.44v7.2h1.44Z"/></g></g></g></g></svg>